<svg width="43" height="41" viewBox="0 0 43 41" fill="none" xmlns="http://www.w3.org/2000/svg">
<path fill-rule="evenodd" clip-rule="evenodd" d="M39.7917 10.3384L25.6492 0.0437012H21.1321L26.1337 3.681L36.6708 11.3506L30.7165 29.7099H33.5089L39.7917 10.3384Z" fill="#FFCB29"/>
<path fill-rule="evenodd" clip-rule="evenodd" d="M37.254 34.8862L42.6581 18.2303L41.2619 13.9182L39.3483 19.8103L35.324 32.2199H16.0648L16.9272 34.8862H37.254Z" fill="#FFCB29"/>
<path fill-rule="evenodd" clip-rule="evenodd" d="M13.1821 40.054H30.6591L34.3138 37.396H15.1121L9.16601 19.0696L6.90747 20.7154L13.1821 40.054Z" fill="#FFCB29"/>
<path fill-rule="evenodd" clip-rule="evenodd" d="M0.838135 18.7322L6.2422 35.3881L9.89692 38.0543L3.95902 19.7526L19.5224 8.42928L17.2556 6.78345L0.838135 18.7322Z" fill="#FFCB29"/>
<path fill-rule="evenodd" clip-rule="evenodd" d="M17.2638 0.389404L3.12128 10.6841L1.7251 14.988L17.2638 3.68107L32.8436 15.0209L33.706 12.3629L17.2638 0.389404Z" fill="#FFCB29"/>
</svg>
